<?xml version="1.0" standalone="no"?>
<!DOCTYPE svg PUBLIC "-//W3C//DTD SVG 20010904//EN"
 "http://www.w3.org/TR/2001/REC-SVG-20010904/DTD/svg10.dtd">
<svg version="1.0" xmlns="http://www.w3.org/2000/svg"
 width="1024.000000pt" height="1024.000000pt" viewBox="0 0 1024.000000 1024.000000"
 preserveAspectRatio="xMidYMid meet">
<metadata>
Created by potrace 1.11, written by Peter Selinger 2001-2013
</metadata>
<g transform="translate(0.000000,1024.000000) scale(0.100000,-0.100000)"
fill="#000000" stroke="none">
<path d="M5000 10233 c-8 -3 -17 -9 -20 -13 -6 -9 -72 -88 -120 -145 -19 -22
-53 -63 -75 -90 -22 -26 -75 -89 -117 -139 -62 -73 -743 -888 -903 -1080 -22
-27 -47 -57 -57 -68 -9 -10 -31 -38 -50 -60 -31 -40 -84 -102 -132 -158 -12
-14 -158 -189 -326 -390 -167 -201 -314 -376 -326 -390 -12 -14 -80 -95 -150
-180 -71 -85 -133 -160 -139 -166 -5 -6 -28 -33 -50 -59 -22 -27 -67 -81 -100
-120 -114 -135 -125 -150 -125 -168 0 -17 94 -17 2088 -11 2000 5 3253 10
3280 13 6 0 12 7 12 14 0 6 -69 96 -153 198 -272 333 -368 450 -585 714 -236
286 -249 302 -295 359 -18 22 -79 96 -136 165 -57 69 -118 144 -136 166 -130
159 -230 281 -235 285 -3 3 -43 52 -90 110 -47 58 -119 146 -160 196 -41 49
-90 109 -108 132 -19 22 -43 51 -54 64 -41 48 -54 64 -88 108 -19 25 -37 47
-40 50 -5 4 -370 448 -468 570 -79 97 -98 109 -142 93z m643 -1547 c195 -46
327 -205 378 -456 18 -90 19 -295 2 -380 -49 -240 -203 -362 -447 -354 -320
11 -503 267 -498 695 3 266 120 448 317 495 65 15 183 15 248 0z m-970 -15
c176 -41 257 -165 225 -344 -22 -122 -120 -240 -327 -397 -82 -62 -226 -174
-243 -190 -15 -14 8 -15 234 -15 l250 0 -6 -60 c-4 -33 -9 -76 -11 -95 -10
-71 28 -65 -435 -65 -291 0 -420 3 -420 11 0 6 4 35 10 65 5 30 11 70 14 90 3
20 8 42 12 50 3 8 114 97 246 199 270 208 318 252 349 312 30 58 31 147 3 185
-61 83 -207 85 -380 8 -32 -15 -73 -33 -91 -41 l-31 -14 4 33 c3 17 7 41 9 53
2 11 7 45 11 75 11 93 11 93 121 117 54 13 125 26 158 30 80 11 238 7 298 -7z"/>
<path d="M5486 8485 c-46 -16 -61 -28 -79 -68 -54 -113 -34 -486 32 -618 29
-59 62 -87 112 -97 81 -17 139 20 170 108 16 48 18 76 14 225 -4 175 -5 189
-31 290 -16 65 -55 129 -88 147 -37 20 -93 25 -130 13z"/>
<path d="M5550 9945 c0 -3 48 -62 106 -132 123 -149 118 -143 209 -253 38 -47
74 -90 80 -96 5 -6 21 -26 35 -44 14 -18 37 -47 51 -64 32 -38 369 -447 407
-495 15 -18 32 -38 37 -45 10 -10 182 -218 212 -256 7 -8 49 -60 95 -116 46
-55 110 -134 143 -175 33 -41 62 -76 65 -79 4 -3 69 -81 145 -175 76 -93 175
-213 218 -265 97 -116 102 -123 151 -185 22 -28 44 -54 50 -60 6 -5 47 -55 91
-110 44 -55 85 -105 90 -111 6 -6 53 -63 105 -127 52 -64 101 -118 108 -121
14 -6 73 17 235 93 59 28 109 51 111 51 2 0 48 21 103 46 54 25 244 113 423
194 482 220 497 227 504 238 3 6 -8 22 -26 35 -28 22 -778 475 -848 514 -14 7
-212 126 -440 264 -228 138 -430 260 -449 271 -19 11 -59 35 -88 54 -29 19
-55 34 -57 34 -2 0 -114 68 -251 150 -136 83 -249 150 -251 150 -1 0 -23 14
-47 30 -25 17 -47 30 -50 30 -3 0 -33 18 -66 40 -33 22 -62 40 -65 40 -4 0
-140 81 -286 170 -98 60 -710 428 -725 436 -11 6 -44 25 -72 42 -29 17 -53 29
-53 27z m2110 -1774 c107 -61 202 -116 210 -121 97 -63 233 -100 246 -66 3 9
3 28 0 44 -8 33 -141 164 -214 212 -29 18 -52 36 -52 40 0 3 33 5 74 4 l75 -1
129 -129 c128 -128 195 -214 208 -266 9 -41 -2 -73 -31 -86 -54 -25 -126 -10
-255 51 -73 35 -109 55 -255 139 -151 87 -161 92 -144 72 14 -17 149 -173 203
-234 40 -45 39 -46 -30 -46 l-64 1 -113 131 c-61 72 -157 182 -211 245 l-99
114 39 5 c71 9 87 3 284 -109z"/>
<path d="M4305 9776 c-125 -84 -647 -428 -835 -551 -69 -45 -219 -144 -335
-220 -115 -76 -295 -195 -400 -263 -104 -69 -296 -195 -425 -280 -129 -86
-318 -210 -420 -277 -102 -67 -273 -179 -380 -250 -107 -71 -287 -189 -399
-263 l-205 -134 55 -25 c30 -14 122 -56 204 -93 83 -37 175 -79 205 -93 280
-129 620 -281 644 -288 40 -12 54 -2 132 93 112 134 443 529 489 583 24 28 54
64 66 80 13 17 26 32 29 35 3 3 111 131 240 285 129 154 272 325 319 380 46
55 100 120 121 145 52 63 599 717 770 920 20 25 77 92 125 150 48 58 95 113
103 123 8 9 13 17 11 17 -2 -1 -53 -34 -114 -74z m-1599 -1453 c33 -23 12 -93
-62 -204 -126 -189 -357 -348 -530 -366 -51 -5 -54 -4 -63 21 -6 14 -7 34 -4
43 4 10 -19 -6 -51 -34 -132 -121 -344 -202 -375 -145 -36 68 136 313 297 424
105 73 269 124 299 94 3 -3 6 -16 7 -30 1 -32 3 -32 36 2 78 80 215 163 320
194 26 8 115 8 126 1z"/>
<path d="M2397 8126 c-94 -39 -176 -109 -197 -169 -7 -22 -6 -29 6 -34 41 -15
177 38 240 94 42 38 84 102 77 119 -8 21 -61 17 -126 -10z"/>
<path d="M2013 7990 c-71 -17 -171 -95 -192 -152 -13 -33 3 -41 56 -26 101 28
203 114 203 172 0 17 -16 19 -67 6z"/>
<path d="M9280 7419 c-85 -39 -197 -90 -248 -115 -51 -24 -95 -44 -97 -44 -3
0 -37 -15 -77 -34 -193 -90 -250 -116 -253 -116 -2 0 -55 -25 -120 -55 -64
-30 -118 -55 -120 -55 -2 0 -45 -20 -97 -43 -51 -24 -114 -53 -140 -65 -25
-12 -49 -30 -53 -41 -5 -17 40 -137 360 -946 45 -115 104 -264 129 -330 26
-66 56 -140 66 -165 11 -25 48 -119 84 -210 131 -338 378 -966 386 -985 5 -11
39 -96 76 -190 36 -93 71 -181 77 -195 6 -14 11 -27 11 -30 2 -8 126 -323 136
-345 5 -11 23 -56 40 -100 17 -44 35 -89 39 -100 5 -11 17 -40 26 -65 17 -46
34 -86 54 -130 8 -19 10 81 6 420 -3 245 -7 501 -10 570 -2 69 -6 242 -9 385
-6 263 -11 447 -21 855 -11 439 -14 568 -20 825 -3 143 -8 321 -10 395 -2 74
-7 254 -10 400 -13 597 -12 581 -38 580 -7 -1 -82 -33 -167 -71z m148 -909 l3
-79 -70 -46 c-56 -37 -69 -50 -66 -68 4 -20 9 -107 21 -367 4 -91 10 -184 13
-200 1 -2 30 24 65 59 35 35 66 59 68 55 2 -5 6 -42 7 -82 l3 -73 -64 -60
c-56 -54 -207 -163 -215 -155 -3 2 -6 59 -17 266 -6 112 -16 293 -21 375 -2
28 -4 64 -4 82 l-1 32 -30 -17 c-25 -14 -35 -33 -32 -62 0 -3 -19 -6 -43 -7
-119 -4 -243 -114 -247 -220 -4 -106 40 -128 139 -72 30 17 56 30 58 28 2 -2
5 -35 6 -73 l2 -69 -53 -38 c-66 -47 -96 -81 -111 -126 -13 -41 -6 -112 13
-124 40 -26 119 18 197 109 l40 47 1 -30 c1 -16 3 -56 5 -87 l4 -57 -61 -56
c-78 -73 -154 -123 -210 -140 -96 -28 -139 11 -146 134 -5 91 15 170 58 230
35 48 36 51 13 47 -42 -8 -86 30 -99 85 -12 49 -10 166 4 218 38 149 151 273
322 353 30 15 141 81 245 147 105 67 192 121 195 121 3 0 6 -36 8 -80z"/>
<path d="M809 7357 c-2 -27 -7 -145 -13 -367 -4 -129 -9 -282 -11 -340 -2 -58
-7 -195 -10 -305 -6 -206 -10 -320 -20 -605 -3 -91 -7 -235 -10 -320 -2 -85
-7 -231 -10 -325 -3 -93 -8 -233 -10 -310 -4 -131 -10 -321 -20 -630 -2 -71
-7 -209 -10 -305 -9 -305 -15 -461 -21 -620 -3 -85 -4 -153 -1 -150 2 3 25 68
52 145 109 319 328 964 345 1015 10 30 78 228 150 440 72 212 140 410 150 440
10 30 52 154 93 275 42 121 116 339 165 485 50 146 143 418 206 605 64 186
116 345 116 353 0 7 -44 33 -97 58 -54 25 -116 54 -138 64 -92 42 -823 374
-862 391 -31 13 -43 15 -44 6z m218 -1141 c23 -26 50 -70 60 -99 l18 -52 3 43
c2 23 7 42 12 42 5 0 71 -37 146 -82 l136 -83 -6 -60 c-3 -33 -5 -66 -5 -73
-1 -9 -15 -5 -44 13 -52 30 -56 30 -55 8 1 -22 -13 -221 -17 -243 -1 -8 -6
-64 -10 -125 -4 -60 -9 -113 -12 -117 -5 -9 39 -28 74 -30 25 -2 25 -4 21 -70
-3 -38 -7 -71 -10 -74 -11 -10 -104 20 -150 48 -42 26 -46 32 -43 61 4 37 12
140 20 247 3 41 7 95 10 120 4 39 12 149 18 240 2 17 -7 30 -32 47 -46 31 -49
29 -41 -16 12 -67 2 -291 -16 -353 -3 -9 -7 -27 -9 -39 -6 -32 -53 -125 -69
-138 -51 -42 -121 -24 -194 49 l-44 44 7 70 c3 39 7 72 9 73 1 2 16 -16 33
-40 75 -103 152 -81 170 49 4 30 3 31 -23 26 -33 -6 -84 20 -112 58 -40 53
-65 148 -65 245 -1 115 17 187 56 232 29 33 34 35 76 30 39 -4 53 -12 88 -51z"/>
<path d="M935 6110 c-14 -16 -19 -42 -22 -117 -4 -86 -2 -102 16 -130 48 -77
91 -15 88 129 -2 76 -5 89 -26 112 -29 31 -33 32 -56 6z"/>
<path d="M7367 6813 c-2 -1 -2016 -7 -4730 -13 -257 -1 -397 -4 -397 -11 0 -9
236 -410 690 -1174 111 -187 211 -355 221 -372 10 -18 91 -155 180 -305 89
-150 197 -331 239 -403 42 -71 128 -215 190 -320 62 -104 150 -253 195 -330
45 -77 174 -293 285 -480 111 -187 210 -353 220 -370 161 -280 573 -962 584
-970 11 -7 19 -4 31 10 13 18 286 492 373 648 18 33 115 204 216 380 215 378
688 1210 1394 2452 112 198 257 452 322 565 64 113 128 225 142 250 14 25 70
124 125 220 115 203 117 209 99 216 -12 5 -375 12 -379 7z m-2966 -995 c1 -7
2 -53 3 -103 l1 -90 258 -3 257 -2 0 -129 0 -128 -157 -235 c-87 -129 -192
-284 -233 -346 l-75 -112 -167 0 -168 0 0 365 c0 285 -3 365 -12 366 -7 1 -44
2 -83 3 l-70 1 0 105 0 105 83 3 82 3 0 104 0 105 140 0 c105 0 140 -3 141
-12z m1512 -75 c-1 -49 -2 -95 -2 -104 -1 -13 -18 -15 -118 -14 -65 1 -124 -1
-130 -3 -10 -3 -13 -88 -13 -377 l0 -373 131 27 c71 15 132 24 135 19 3 -4 5
-49 6 -100 l1 -93 -59 -12 c-33 -7 -72 -15 -89 -18 -16 -3 -48 -10 -70 -15
-22 -5 -108 -10 -190 -10 l-150 0 0 475 c0 310 -3 475 -10 476 -5 1 -64 2
-130 3 l-120 1 -3 103 -3 102 408 0 408 0 -2 -87z"/>
<path d="M4409 5405 c-1 0 -3 -109 -4 -243 -2 -134 1 -240 5 -235 25 27 320
473 313 474 -6 0 -279 4 -314 4z"/>
<path d="M7835 6533 c-49 -87 -132 -232 -184 -323 -52 -91 -108 -190 -124
-220 -17 -30 -50 -88 -74 -128 -24 -41 -43 -75 -43 -77 0 -2 -20 -38 -45 -79
-25 -42 -45 -79 -45 -81 0 -3 -20 -38 -44 -78 -23 -39 -61 -103 -82 -142 -21
-38 -43 -77 -49 -87 -5 -9 -17 -29 -26 -45 -8 -15 -130 -228 -269 -473 -139
-245 -308 -542 -375 -660 -160 -283 -163 -289 -230 -405 -31 -55 -67 -118 -80
-140 -12 -22 -89 -157 -170 -300 -81 -143 -182 -321 -225 -395 -42 -74 -90
-157 -105 -185 -15 -27 -53 -95 -85 -150 -32 -55 -68 -118 -80 -140 -12 -22
-80 -142 -151 -266 -71 -124 -129 -232 -129 -238 0 -11 69 -9 140 4 8 1 40 6
70 10 30 4 62 9 70 10 8 1 44 6 80 11 36 4 67 8 70 9 3 1 34 5 70 10 36 5 67
9 70 10 7 1 116 16 160 21 19 2 46 6 60 9 14 2 45 7 70 10 25 4 56 8 70 10 14
2 48 7 75 10 28 3 61 7 75 10 14 2 50 7 80 10 30 4 64 9 74 11 23 4 166 24
216 30 19 2 69 9 110 15 41 6 91 13 110 15 19 3 46 7 60 9 14 2 48 7 75 10 28
4 61 8 75 10 14 2 95 13 180 25 85 11 171 23 190 26 19 2 69 9 110 15 41 5 89
12 105 14 17 2 48 7 70 10 22 3 56 8 75 11 19 2 53 7 75 9 38 5 159 22 215 30
14 2 48 7 75 10 28 4 109 15 180 26 130 19 170 24 255 35 25 3 56 7 70 9 14 2
45 7 70 10 25 3 56 8 70 10 14 2 63 9 110 15 47 6 96 13 110 15 14 2 63 9 110
15 47 6 101 13 120 16 19 2 44 6 55 9 11 2 49 7 85 11 94 9 122 27 114 70 -2
13 -37 108 -78 211 -40 103 -105 271 -145 373 -40 102 -76 194 -81 205 -5 11
-39 94 -74 185 -58 151 -141 361 -289 735 -30 77 -80 203 -110 280 -31 77
-114 289 -185 470 -72 182 -147 373 -167 425 -21 52 -89 224 -151 382 -63 159
-114 290 -114 293 0 3 -9 24 -19 48 -15 34 -79 198 -199 510 -6 14 -29 -21
-97 -140z m-235 -2464 c73 -56 109 -91 121 -117 9 -20 42 -98 74 -172 31 -74
65 -155 76 -179 11 -24 29 -66 40 -94 11 -28 31 -74 43 -101 39 -85 96 -224
96 -233 0 -11 -163 -252 -171 -253 -3 0 -37 24 -75 53 -348 267 -546 417 -549
417 -2 0 -23 -27 -45 -60 -22 -33 -43 -60 -45 -60 -3 0 -45 32 -94 71 l-90 70
35 46 c63 82 65 74 -36 149 -51 38 -87 72 -83 78 11 18 126 190 134 200 7 8
94 -50 137 -92 25 -23 54 -35 61 -24 38 61 257 382 261 382 3 0 52 -36 110
-81z"/>
<path d="M7490 3741 c-44 -66 -80 -124 -79 -128 0 -10 399 -315 399 -305 0 4
-50 123 -110 265 -61 142 -110 262 -110 267 0 34 -30 4 -100 -99z"/>
<path d="M2070 6588 c-12 -35 -66 -193 -120 -353 -54 -159 -132 -389 -173
-510 -41 -121 -119 -348 -172 -505 -53 -157 -129 -382 -170 -500 -79 -232
-255 -751 -285 -840 -21 -62 -289 -850 -374 -1098 -68 -202 -74 -232 -46 -257
12 -11 29 -20 38 -22 9 -1 51 -7 92 -13 41 -6 89 -13 105 -15 103 -17 62 -11
375 -55 118 -17 226 -33 240 -35 14 -2 61 -9 106 -15 44 -6 90 -12 101 -14 11
-3 44 -7 74 -11 30 -3 61 -8 69 -10 8 -3 39 -7 69 -10 29 -3 56 -7 60 -9 3 -2
33 -7 66 -10 33 -4 85 -11 115 -16 30 -5 73 -11 95 -14 22 -3 56 -8 75 -11 19
-3 49 -7 65 -9 17 -2 77 -11 135 -20 58 -8 128 -18 155 -21 28 -4 57 -8 65
-10 8 -2 42 -7 75 -11 33 -3 62 -8 65 -9 3 -2 33 -7 65 -10 33 -4 69 -9 80
-11 11 -2 40 -6 65 -9 25 -3 55 -8 66 -10 12 -3 102 -16 200 -30 99 -14 195
-28 214 -31 149 -22 311 -45 349 -50 25 -2 53 -7 61 -9 8 -2 40 -7 70 -10 30
-3 66 -8 80 -11 14 -2 41 -6 60 -9 19 -2 53 -7 75 -10 22 -4 51 -8 65 -10 47
-6 130 -19 230 -34 206 -32 220 -32 220 3 0 14 -166 305 -396 691 -217 367
-403 681 -413 698 -10 18 -67 113 -126 212 -59 99 -115 194 -125 210 -10 17
-46 77 -80 135 -34 58 -71 120 -82 139 -11 19 -54 91 -95 160 -42 69 -85 142
-96 161 -21 38 -349 592 -400 675 -16 28 -38 64 -47 80 -10 17 -160 271 -335
565 -175 294 -376 634 -447 755 -72 121 -131 221 -133 223 -1 2 -13 -25 -25
-60z m416 -2184 c47 -64 88 -122 90 -129 3 -8 -12 -23 -36 -38 l-41 -24 48
-18 c133 -50 267 -178 357 -340 53 -93 73 -219 52 -322 -18 -86 -114 -211
-216 -280 -256 -173 -512 -153 -734 56 -90 86 -209 260 -259 383 l-15 36 51
34 c116 77 106 72 113 52 65 -186 142 -304 240 -368 37 -24 123 -53 149 -51
43 4 104 18 123 28 21 12 20 14 -43 56 -151 99 -264 295 -260 451 3 109 51
187 151 246 27 16 41 30 37 37 -4 7 -31 44 -60 83 -29 39 -53 74 -53 77 0 5
209 147 217 147 1 0 41 -52 89 -116z"/>
<path d="M2495 3939 c-39 -11 -111 -72 -131 -111 -38 -73 23 -193 117 -232 58
-24 118 -9 192 47 72 55 85 126 39 201 -58 94 -123 123 -217 95z"/>
<path d="M1071 2261 c3 -7 36 -29 74 -50 39 -21 153 -85 255 -143 240 -137
1651 -938 1710 -971 25 -14 90 -51 145 -82 55 -32 118 -67 140 -79 36 -20 135
-76 460 -261 240 -136 562 -319 595 -338 19 -10 103 -58 185 -105 83 -47 173
-98 200 -113 28 -15 81 -46 120 -68 38 -23 75 -41 81 -41 13 0 27 27 20 38 -2
4 -7 72 -11 152 -3 80 -8 170 -10 200 -2 30 -6 115 -10 189 -4 73 -8 161 -10
195 -2 33 -6 117 -10 186 -4 69 -8 150 -10 180 -2 30 -7 120 -10 200 -4 80 -9
163 -10 185 -2 22 -4 61 -4 86 -2 78 -14 85 -186 109 -82 11 -161 23 -175 25
-14 2 -45 7 -70 10 -25 3 -56 8 -70 10 -14 2 -106 16 -205 30 -99 14 -191 28
-205 30 -14 2 -61 9 -106 15 -44 6 -90 12 -101 14 -11 3 -44 7 -73 11 -29 4
-62 9 -74 11 -12 2 -41 6 -65 9 -25 3 -54 7 -65 10 -12 2 -43 7 -71 10 -27 3
-63 8 -80 10 -73 10 -252 36 -275 40 -22 3 -341 50 -415 61 -16 2 -77 11 -135
19 -58 9 -125 18 -150 21 -25 2 -52 6 -60 9 -8 2 -42 7 -75 11 -33 3 -62 8
-65 9 -3 2 -34 6 -70 10 -35 3 -67 8 -70 10 -3 2 -30 6 -60 9 -30 3 -66 8 -79
11 -14 2 -59 9 -100 15 -71 10 -89 12 -166 25 -16 3 -50 7 -75 10 -25 3 -56 8
-70 10 -32 5 -243 34 -295 41 -22 3 -47 7 -55 9 -8 2 -40 7 -70 10 -30 4 -59
9 -64 12 -5 3 -7 0 -5 -6z m3086 -750 c58 -16 158 -84 187 -128 14 -21 27 -54
30 -74 11 -89 -91 -206 -243 -281 l-90 -44 30 -19 c35 -24 36 -31 7 -46 -13
-7 -43 -27 -67 -46 -24 -18 -49 -33 -56 -33 -6 0 -40 21 -74 47 -63 46 -63 46
-41 63 21 16 21 17 -37 29 -32 8 -76 22 -98 33 -67 34 -184 137 -185 163 0 11
98 81 103 74 2 -2 20 -27 40 -55 68 -95 188 -131 295 -89 42 17 48 35 11 35
-20 0 -100 38 -130 62 -59 47 -84 131 -55 186 56 108 224 163 373 123z"/>
<path d="M4085 1403 c-61 -14 -128 -64 -138 -104 -7 -27 29 -64 75 -77 30 -8
47 -7 85 8 44 16 113 77 113 100 0 5 -12 23 -27 39 -28 30 -70 43 -108 34z"/>
<path d="M9149 2256 c-2 -2 -29 -7 -59 -10 -30 -3 -70 -8 -88 -10 -18 -3 -52
-8 -75 -11 -23 -3 -58 -8 -77 -11 -19 -2 -48 -6 -65 -8 -31 -4 -111 -15 -155
-21 -46 -7 -245 -35 -288 -41 -24 -3 -51 -7 -60 -8 -21 -4 -108 -17 -145 -22
-79 -10 -196 -25 -227 -30 -19 -2 -53 -7 -75 -9 -22 -3 -51 -7 -65 -10 -38 -7
-80 -13 -140 -20 -30 -3 -66 -8 -80 -10 -14 -2 -61 -9 -105 -15 -161 -23 -203
-29 -255 -35 -45 -6 -58 -8 -140 -20 -80 -12 -94 -14 -150 -20 -30 -3 -62 -8
-70 -10 -8 -2 -35 -6 -60 -9 -46 -5 -175 -23 -220 -31 -14 -2 -50 -7 -80 -10
-30 -3 -95 -12 -145 -20 -49 -7 -112 -16 -140 -20 -47 -6 -70 -9 -155 -20 -19
-3 -53 -8 -75 -10 -22 -3 -51 -8 -65 -10 -14 -3 -47 -7 -75 -10 -27 -4 -75
-10 -105 -15 -30 -5 -77 -12 -105 -15 -76 -9 -118 -15 -140 -20 -11 -2 -51 -7
-90 -10 -38 -4 -73 -9 -76 -11 -3 -1 -28 -6 -55 -10 -27 -3 -57 -10 -67 -16
-19 -10 -19 -20 -2 -328 5 -84 9 -168 20 -365 3 -55 7 -136 10 -180 2 -44 7
-129 10 -190 3 -60 8 -146 10 -190 12 -205 17 -304 20 -345 1 -25 3 -57 4 -72
2 -53 41 -37 341 138 157 91 317 183 355 205 39 22 79 45 90 52 35 21 89 53
135 79 25 14 173 99 330 190 328 190 1283 742 1350 780 25 14 252 146 505 293
714 414 788 457 820 477 l30 18 -26 0 c-14 0 -28 -2 -30 -4z m-2434 -694 c6
-4 28 -27 49 -52 22 -25 78 -87 125 -139 47 -52 91 -101 97 -109 9 -12 28 -4
123 52 62 36 116 66 119 66 12 0 61 -65 54 -71 -9 -9 -956 -570 -1022 -606
-14 -8 -38 -23 -55 -33 -16 -11 -39 -24 -50 -30 -11 -6 -33 -19 -50 -30 -16
-11 -37 -23 -45 -27 -8 -3 -27 -14 -41 -24 -26 -18 -26 -18 -59 16 -19 19 -32
36 -29 39 2 2 52 32 111 66 73 43 105 67 100 75 -6 11 -74 87 -189 213 l-32
35 -107 -80 -108 -79 -28 32 c-15 17 -28 36 -28 41 0 5 15 17 33 28 17 10 37
23 42 27 66 55 354 238 374 238 8 0 25 -17 181 -190 52 -57 100 -110 107 -117
12 -14 43 1 153 73 19 12 51 31 70 41 70 38 141 85 138 93 -2 4 -44 52 -95
106 -50 55 -99 109 -110 121 l-18 23 -103 -75 c-57 -41 -109 -75 -116 -75 -10
0 -56 51 -56 62 0 15 429 298 450 298 3 0 10 -4 15 -8z"/>
</g>
</svg>
